<?xml version="1.0" encoding="utf-8"?>
<!-- Generator: Adobe Illustrator 19.1.0, SVG Export Plug-In . SVG Version: 6.00 Build 0)  -->
<svg version="1.1" id="Layer_1" xmlns="http://www.w3.org/2000/svg" xmlns:xlink="http://www.w3.org/1999/xlink" x="0px" y="0px"
	 viewBox="0 0 40 40" enable-background="new 0 0 40 40" xml:space="preserve">
<path stroke="#000000" stroke-width="8.922783e-03" d="M7.8,8.7c0,0,4.7,4.8,6.1,6.2L7.8,21l-6.1-6.1L7.8,8.7z"/>
<path stroke="#000000" stroke-width="8.922783e-03" d="M20.1,8.7l6.1,6.1c0,0.1-6.1,6.2-6.1,6.2l-6.1-6.1
	C15.9,12.8,18.1,10.7,20.1,8.7z"/>
<path stroke="#000000" stroke-width="8.922783e-03" d="M32.3,8.7l6.1,6.2L32.3,21l-6.1-6.2L32.3,8.7z"/>
<path stroke="#000000" stroke-width="8.922783e-03" d="M20.1,21c0,0,4.1,4.1,6.1,6.1c-0.1,0.2-5.6,5.7-6.1,6.1
	c-0.7-0.6-4.8-4.8-6.2-6.1L20.1,21z"/>
</svg>
